<?xml version="1.0" encoding="iso-8859-1"?>
<!-- Uploaded to: SVG Repo, www.svgrepo.com, Generator: SVG Repo Mixer Tools -->
<svg fill="#000000" height="800px" width="800px" version="1.1" id="Layer_1" xmlns="http://www.w3.org/2000/svg" xmlns:xlink="http://www.w3.org/1999/xlink" 
	 viewBox="0 0 512 512" xml:space="preserve">
<g>
	<g>
		<g>
			<path d="M218.507,356.921c-5.64,0-11.456,2.016-17.286,5.991c-0.509,0.346-0.976,0.75-1.393,1.202
				c-2.975,3.229-28.821,32.27-20.467,57.11c5.015,14.916,17.35,24.938,30.692,24.938c12.535,0,23.481-8.881,30.031-24.365
				c7.888-18.641,7.275-40.088-1.525-53.368C233.64,361.009,226.518,356.921,218.507,356.921z M225.193,415.499
				c-3.955,9.347-9.331,14.495-15.141,14.495c-6.191,0-12.653-5.855-15.366-13.923c-4.35-12.936,10.149-33.197,16.409-40.305
				c2.759-1.755,5.309-2.677,7.413-2.677c0.925,0,3.742,0,6.574,4.273C230.009,384.799,231.63,400.287,225.193,415.499z"/>
			<path d="M511.889,248.73c-0.013-0.472-0.036-0.943-0.052-1.414c-0.07-2.116-0.165-4.226-0.287-6.333
				c-0.014-0.23-0.028-0.458-0.042-0.688c-3.756-62.473-29.86-120.684-74.491-165.316C388.668,26.628,324.38,0,256.001,0
				S123.333,26.628,74.982,74.981c-41.605,41.604-67.107,95.01-73.42,152.665c-0.023,0.207-0.046,0.413-0.068,0.62
				c-0.142,1.326-0.277,2.653-0.398,3.983c-0.055,0.591-0.101,1.182-0.152,1.774c-0.128,1.52-0.247,3.043-0.349,4.568
				c-0.087,1.286-0.168,2.574-0.236,3.863c-0.038,0.725-0.067,1.453-0.099,2.18c-0.056,1.273-0.102,2.546-0.14,3.821
				c-0.018,0.622-0.037,1.243-0.051,1.865c-0.041,1.893-0.069,3.784-0.069,5.68c0,2.435,0.043,4.863,0.11,7.287
				c0.014,0.473,0.036,0.946,0.052,1.421c0.07,2.119,0.166,4.233,0.288,6.343c0.014,0.235,0.028,0.47,0.043,0.705
				C4.26,334.208,30.362,392.4,74.981,437.018C123.333,485.372,187.621,512,256.001,512c66.661,0,129.426-25.317,177.336-71.388
				c0.227-0.219,0.452-0.442,0.678-0.662c1.005-0.973,2.012-1.94,3.004-2.932c0.462-0.462,0.91-0.937,1.369-1.402
				c0.371-0.375,0.738-0.755,1.106-1.133c1.384-1.422,2.75-2.858,4.096-4.305c0.265-0.286,0.531-0.569,0.795-0.856
				c41.477-44.993,65.138-102.395,67.414-163.576c0.023-0.592,0.045-1.182,0.065-1.771c0.027-0.9,0.053-1.801,0.071-2.702
				c0.039-1.774,0.065-3.538,0.065-5.273C511.999,253.57,511.956,251.148,511.889,248.73z M110.041,446.162
				c-15.608-12.009-29.705-25.886-41.945-41.304c-0.343-0.433-0.691-0.863-1.03-1.3c-0.631-0.806-1.248-1.622-1.869-2.436
				c-0.889-1.172-1.775-2.346-2.643-3.533c-0.226-0.308-0.452-0.618-0.676-0.926c-26.502-36.652-42.466-80.438-45.259-126.201
				c-0.017-0.283-0.038-0.567-0.054-0.852c-0.107-1.867-0.183-3.739-0.247-5.613c-0.014-0.433-0.038-0.865-0.05-1.299
				c-0.064-2.229-0.099-4.461-0.099-6.699c0-1.838,0.028-3.668,0.07-5.496c0.011-0.49,0.025-0.98,0.039-1.469
				c0.045-1.588,0.105-3.171,0.181-4.751c0.013-0.261,0.021-0.522,0.034-0.783c0.093-1.807,0.21-3.608,0.344-5.404
				c0.033-0.446,0.07-0.891,0.106-1.337c0.121-1.513,0.254-3.022,0.403-4.527c0.033-0.343,0.065-0.688,0.099-1.031
				c0.19-1.833,0.399-3.662,0.628-5.483c0.03-0.24,0.065-0.48,0.095-0.72c0.218-1.682,0.453-3.358,0.706-5.029
				c0.037-0.243,0.072-0.485,0.109-0.727c5.111-33.092,17.02-63.968,34.238-91.164c10.122,0.052,34.701,0.337,59.964,1.827
				c50.065,2.95,61.011,8.259,63.079,9.672c3.383,10.409,3.528,27.969-1.422,36.854c-2.036,3.653-3.992,4.072-4.636,4.209
				c-16.935,3.628-68.622,30.4-74.46,33.441c-0.158,0.083-0.315,0.171-0.469,0.265c-1.277,0.777-12.528,8.011-14.549,22.581
				c-1.705,12.291,3.79,25.374,16.332,38.881c16.703,17.988,39.461,18.098,57.748,18.187c9.648,0.046,19.625,0.096,22.573,3.392
				c1.754,1.961,1.711,6.214,1.367,9.436c-1.579,14.752-15.738,30.011-30.73,46.164c-21.859,23.556-46.636,50.256-37.99,84.018
				C111.175,441.476,110.872,444.305,110.041,446.162z M463.787,375.661c8.606-37.956,10.699-74.736-2.821-92.256
				c-14.402-18.666-22.755-39.287-19.865-49.032c0.818-2.756,2.5-4.398,5.622-5.491c0.105-0.038,2.663-0.83,10.078,5.591
				c6.253,5.413,13.294,13.585,20.748,22.236c5.654,6.562,11.475,13.316,17.428,19.422
				C491.973,312.136,480.989,345.908,463.787,375.661z M489.801,246.156c-17.577-20.399-32.756-38.017-48.416-32.534
				c-8.021,2.808-13.478,8.393-15.781,16.151c-6.989,23.554,17.569,57.036,22.564,63.51c11.927,15.456,6.9,65.071-12.181,121.04
				c-10.805,12.269-22.835,23.431-35.908,33.285c-12.707-11.661-28.437-35.081-46.85-69.779c-2.092-3.944-6.987-5.444-10.931-3.351
				s-5.444,6.987-3.351,10.931c18.258,34.406,33.945,58.007,47.653,71.65c-37.605,24.507-82.464,38.773-130.599,38.773
				c-49.073,0-94.744-14.825-132.789-40.218c3.806-6.006,4.74-13.795,2.481-22.616c-6.457-25.218,13.281-46.49,34.179-69.009
				c16.87-18.179,32.805-35.35,34.954-55.443c1.023-9.561-0.741-16.735-5.391-21.935c-7.737-8.651-20.76-8.715-34.547-8.782
				c-15.957-0.078-34.042-0.166-45.979-13.021c-8.872-9.556-13.088-18.366-12.189-25.48c0.842-6.662,5.937-10.46,6.834-11.082
				c15.603-8.113,57.593-29.128,70.041-31.795c6.391-1.37,11.706-5.571,15.372-12.15c7.701-13.818,7.152-37.25,2.227-51.036
				c-2.575-7.208-10.533-15.233-72.773-19.236c-20.289-1.305-40.598-1.812-54.103-2.007c43.802-58.17,113.423-95.853,191.682-95.853
				c49.866,0,96.22,15.304,134.628,41.453c-5.319,6.372-13.657,14.213-21.329,14.213c-15.712,0-48.407,0-62.728,17.106
				c-5.635,6.73-7.698,15.412-5.966,25.105c3.122,17.483,13.508,28.649,21.855,37.621c9.746,10.477,14.711,16.424,12.132,26.743
				c-1.489,5.954-18.312,12.678-31.831,18.08c-23.665,9.456-50.489,20.175-58.948,42.644c-4.602,12.218-2.924,26.298,4.982,41.849
				c20.754,40.817,36.234,47.441,52.897,51.431c7.551,1.809,11.708,2.805,16.831,12.825c1.291,2.528,2.861,5.68,4.672,9.316
				c1.366,2.739,2.864,5.748,4.482,8.97c2.004,3.989,6.864,5.598,10.853,3.595c3.989-2.005,5.599-6.864,3.595-10.853
				c-1.609-3.203-3.101-6.197-4.458-8.921c-1.84-3.694-3.436-6.897-4.747-9.465c-8.511-16.652-18.58-19.064-27.464-21.19
				c-10.871-2.603-23.192-5.553-42.249-43.036c-5.844-11.494-7.239-20.922-4.264-28.823c5.949-15.797,29.255-25.11,49.818-33.326
				c20.402-8.153,38.023-15.194,41.518-29.172c4.828-19.31-6.227-31.193-15.98-41.677c-7.616-8.188-15.493-16.652-17.778-29.451
				c-1.182-6.619,0.831-9.952,2.448-11.884c9.475-11.317,39.157-11.317,50.331-11.317c15.037,0,27.642-12.444,34.42-20.815
				c13.694,10.737,26.197,22.926,37.271,36.337c0.003,0.004,0.006,0.008,0.01,0.012c0.886,1.074,1.753,2.162,2.62,3.252
				c0.625,0.788,1.251,1.575,1.867,2.371c0.447,0.576,0.888,1.154,1.33,1.734c28.044,36.971,45.14,81.665,48.429,128.49
				c0.013,0.194,0.024,0.388,0.037,0.582c0.125,1.841,0.223,3.684,0.305,5.532c0.029,0.674,0.054,1.348,0.078,2.023
				c0.051,1.402,0.086,2.807,0.112,4.214c0.008,0.447,0.012,0.896,0.017,1.343C493.783,250.776,491.782,248.454,489.801,246.156z"/>
		</g>
	</g>
</g>
</svg>