<?xml version="1.0" encoding="UTF-8"?>
<svg version="1.1" xmlns="http://www.w3.org/2000/svg" width="512" height="512">
<path d="M0 0 C43.72709894 -0.95522278 84.95400571 8.40915918 123.56005859 29.06201172 C124.71634766 29.67560547 125.87263672 30.28919922 127.06396484 30.92138672 C153.2939949 45.36431567 177.61328402 66.06381989 195.56005859 90.06201172 C196.43360051 91.19494452 197.30730971 92.32774835 198.18115234 93.46044922 C220.8369327 123.19269403 236.81086467 159.09934731 242.56005859 196.06201172 C242.66898437 196.74150879 242.77791016 197.42100586 242.89013672 198.12109375 C252.24378313 257.64028716 239.12930666 322.25860075 203.46630859 371.39404297 C191.35647619 387.65685694 178.21246836 403.23918199 162.28662109 415.89013672 C160.50688985 417.30780229 158.75007212 418.75486168 157.02099609 420.23388672 C127.70686916 445.20846012 90.8715865 460.11667035 53.56005859 468.06201172 C52.57521484 468.27212891 51.59037109 468.48224609 50.57568359 468.69873047 C47.79097766 469.03419375 45.17234907 469.09793332 42.37158203 469.0847168 C41.47066833 469.08143875 40.56975464 469.07816071 39.64154053 469.07478333 C38.61120697 469.06846138 38.61120697 469.06846138 37.56005859 469.06201172 C37.3513447 458.99610175 37.19152371 448.93070793 37.09374905 438.86307335 C37.0468157 434.18788503 36.98318599 429.5141789 36.88110352 424.83984375 C36.78316487 420.32690556 36.72947194 415.8153907 36.70616341 411.30147171 C36.68955875 409.58131116 36.65712996 407.8612269 36.60848808 406.14167404 C36.24318315 392.69018919 36.24318315 392.69018919 39.42485046 388.75639343 C41.74760522 387.17731938 43.9551053 386.0969253 46.56005859 385.06201172 C47.54868896 384.46138916 48.53731934 383.8607666 49.5559082 383.24194336 C50.43255127 382.74041748 51.30919434 382.2388916 52.21240234 381.72216797 C53.22238281 381.14208984 54.23236328 380.56201172 55.27294922 379.96435547 C56.33707031 379.35720703 57.40119141 378.75005859 58.49755859 378.12451172 C60.2274042 377.13209034 61.95724702 376.13966407 63.68692017 375.14694214 C65.46945731 374.12437081 67.25274056 373.10311038 69.03613281 372.08203125 C74.55195647 368.92231261 80.05526605 365.7408945 85.56005859 362.56201172 C87.72666828 361.31191296 89.8933351 360.06191321 92.06005859 358.81201172 C93.13255859 358.19326172 94.20505859 357.57451172 95.31005859 356.93701172 C105.06005859 351.31201172 105.06005859 351.31201172 108.31298828 349.43579102 C110.47043202 348.19079999 112.62733714 346.94487511 114.78369141 345.69799805 C120.3373254 342.48832675 125.90057787 339.29748403 131.48193359 336.13623047 C154.47053492 324.68309395 154.47053492 324.68309395 170.84912109 306.11669922 C172.6508594 298.37516428 173.00071174 289.62227123 168.75146484 282.66357422 C166.86306829 280.12507393 164.98893311 278.10447438 162.56005859 276.06201172 C162.05345703 275.59537109 161.54685547 275.12873047 161.02490234 274.64794922 C155.14323001 270.02017187 147.92163045 270.03914138 140.71337891 270.67602539 C132.26131973 272.19107137 124.80980872 277.02478326 117.56005859 281.37451172 C115.43286861 282.63302454 113.30524956 283.89081238 111.17724609 285.14794922 C110.08637695 285.79473633 108.99550781 286.44152344 107.87158203 287.10791016 C102.49899285 290.27822893 97.09215316 293.38853016 91.68505859 296.49951172 C89.51835736 297.74814966 87.35169093 298.99684799 85.18505859 300.24560547 C84.10224609 300.86935059 83.01943359 301.4930957 81.90380859 302.13574219 C77.29228434 304.79235188 72.68153719 307.45030729 68.07128906 310.10913086 C65.89340978 311.36514069 63.71536353 312.62086111 61.53710938 313.8762207 C60.53663574 314.45315674 59.53616211 315.03009277 58.50537109 315.62451172 C57.53245117 316.18396484 56.55953125 316.74341797 55.55712891 317.31982422 C53.44301095 318.5487543 51.33906065 319.79525746 49.24267578 321.05419922 C47.63247559 322.01712891 47.63247559 322.01712891 45.98974609 322.99951172 C45.02020996 323.58603516 44.05067383 324.17255859 43.05175781 324.77685547 C40.56005859 326.06201172 40.56005859 326.06201172 37.56005859 326.06201172 C37.35140395 315.08338138 37.1915524 304.10522357 37.09374905 293.12501335 C37.04680376 288.02615135 36.98314889 282.92864696 36.88110352 277.83056641 C36.78321253 272.90915758 36.72948093 267.98905308 36.70616341 263.06674576 C36.68955065 261.1903034 36.65710674 259.31393146 36.60848808 257.4380455 C36.24315571 242.75641753 36.24315571 242.75641753 39.43006897 238.65594482 C41.75998622 237.06805037 43.92297986 236.03966296 46.56005859 235.06201172 C47.52886963 234.48644531 48.49768066 233.91087891 49.49584961 233.31787109 C50.76706665 232.61887695 50.76706665 232.61887695 52.06396484 231.90576172 C53.03889893 231.36580566 54.01383301 230.82584961 55.01831055 230.26953125 C56.0427124 229.7060498 57.06711426 229.14256836 58.12255859 228.56201172 C66.59424199 223.86086805 75.0163926 219.0906217 83.37255859 214.18701172 C91.41841879 209.46594199 99.49545805 204.80437772 107.60452271 200.19284058 C124.88730678 190.36073079 142.15503678 180.44764273 158.99755859 169.87451172 C160.5115625 168.92511719 160.5115625 168.92511719 162.05615234 167.95654297 C166.72708863 164.42237121 170.18067628 159.79630104 171.56005859 154.06201172 C172.56959774 145.04199888 172.01376949 137.52136945 166.56005859 130.06201172 C160.75663401 123.56934431 153.87548035 121.00540646 145.38037109 119.88232422 C136.74566315 120.43245797 129.32774809 125.16260732 121.99755859 129.37451172 C120.90548096 129.99406738 119.81340332 130.61362305 118.68823242 131.25195312 C110.35974232 135.99106231 102.07877795 140.81231866 93.81176758 145.65771484 C82.4830785 152.29564028 71.07927819 158.79994183 59.66601562 165.29101562 C56.88483935 166.87682388 54.10984074 168.47271417 51.33740234 170.07373047 C49.89085963 170.90328288 48.44425195 171.73272205 46.99755859 172.56201172 C46.05203125 173.11369019 46.05203125 173.11369019 45.08740234 173.67651367 C42.33247794 175.2461162 40.7930122 176.06201172 37.56005859 176.06201172 C37.55863358 174.88152252 37.55720856 173.70103333 37.55574036 172.48477173 C37.53903507 161.33286133 37.49615342 150.18131419 37.42796803 139.02959633 C37.3937496 133.29702193 37.36859599 127.56471259 37.36450195 121.83203125 C37.36020806 116.29451173 37.3316542 110.75758963 37.28662682 105.22025681 C37.27368677 103.11291363 37.26933167 101.00549883 37.2739048 98.89812088 C37.63037602 82.12066122 37.63037602 82.12066122 29.58552551 67.95474243 C23.87434027 62.45462742 18.31742542 59.93458776 10.37255859 59.49951172 C2.32411992 59.7127768 -4.64363821 62.34679461 -10.45166016 68.03076172 C-14.98440968 73.73785555 -16.67650512 79.36112493 -16.74291992 86.64868164 C-16.76788292 88.58942818 -16.76788292 88.58942818 -16.79335022 90.56938171 C-16.801932 91.9770808 -16.81042873 93.3847804 -16.81884766 94.79248047 C-16.83507479 96.26623073 -16.85225995 97.73997072 -16.87034607 99.21369934 C-16.91599119 103.10441133 -16.95074029 106.99513938 -16.98254395 110.88598633 C-17.03417274 117.01872667 -17.10031163 123.15133502 -17.1686821 129.28390884 C-17.18543155 130.78714705 -17.2017928 132.29038963 -17.21776199 133.79363632 C-17.37101516 147.89496969 -17.81409179 161.97313633 -18.43994141 176.06201172 C-21.53438188 175.33700326 -24.00242432 174.35862677 -26.79931641 172.83154297 C-27.65493164 172.36578857 -28.51054687 171.90003418 -29.39208984 171.42016602 C-30.31538086 170.9101001 -31.23867187 170.40003418 -32.18994141 169.87451172 C-33.1622168 169.34059814 -34.13449219 168.80668457 -35.13623047 168.2565918 C-45.29324118 162.64619949 -55.29552299 156.77713161 -65.29980469 150.90039062 C-73.94192448 145.8409005 -82.62970013 140.8599317 -91.31103516 135.86816406 C-94.38124645 134.09589322 -97.44273284 132.30937244 -100.50244141 130.51904297 C-102.37741769 129.42915841 -104.25241648 128.33931259 -106.12744141 127.24951172 C-106.97008545 126.75177246 -107.81272949 126.2540332 -108.6809082 125.74121094 C-116.95735113 120.95229389 -123.95639127 118.99747482 -133.43994141 121.06201172 C-141.05071175 124.10397085 -146.57040724 128.87803882 -150.59106445 136.06884766 C-152.05529795 139.50686959 -152.03569515 142.80886528 -151.93994141 146.49951172 C-151.92640625 147.25087402 -151.91287109 148.00223633 -151.89892578 148.77636719 C-151.65235024 155.36079432 -150.55240647 159.90994547 -145.828125 164.69433594 C-140.48932268 169.48234273 -134.79759632 173.04689301 -128.56494141 176.56201172 C-127.00259766 177.45823242 -127.00259766 177.45823242 -125.40869141 178.37255859 C-123.20535118 179.63592969 -120.99990275 180.89563035 -118.79248047 182.15185547 C-114.41498235 184.64599654 -110.0521139 187.16508167 -105.68945312 189.68505859 C-103.5120688 190.94273934 -101.33400147 192.1992383 -99.15527344 193.45458984 C-91.90288216 197.63338464 -84.66649952 201.83872175 -77.43994141 206.06201172 C-69.05711576 210.9596712 -60.66156464 215.83463246 -52.25244141 220.68701172 C-51.28113281 221.24775391 -50.30982422 221.80849609 -49.30908203 222.38623047 C-39.03644521 228.30834152 -28.73528989 234.17895544 -18.43994141 240.06201172 C-18.43994141 268.44201172 -18.43994141 296.82201172 -18.43994141 326.06201172 C-23.32366361 325.08526728 -25.61104097 323.95870737 -29.75244141 321.37451172 C-31.09781049 320.54738645 -32.44423912 319.72198307 -33.79150391 318.89794922 C-34.53174805 318.44387695 -35.27199219 317.98980469 -36.03466797 317.52197266 C-40.53261558 314.79179333 -45.08108165 312.14801761 -49.62744141 309.49951172 C-51.14362061 308.61573853 -51.14362061 308.61573853 -52.69042969 307.71411133 C-64.12517879 301.06256572 -75.61664907 294.51082265 -87.11035156 287.96191406 C-90.29980003 286.14197801 -93.4858306 284.31623283 -96.67041016 282.48779297 C-98.10767456 281.66335693 -98.10767456 281.66335693 -99.57397461 280.82226562 C-101.34014283 279.80884657 -103.10565666 278.79428576 -104.87036133 277.77832031 C-106.39631545 276.90370147 -107.92591359 276.03539343 -109.45996094 275.17504883 C-111.14768682 274.22630132 -112.81911314 273.24865403 -114.48681641 272.26513672 C-118.35122423 270.69074835 -121.679452 270.5664457 -125.81494141 270.62451172 C-126.94766479 270.63695923 -126.94766479 270.63695923 -128.10327148 270.6496582 C-134.77070766 270.85253309 -139.19334056 272.03983029 -144.13525391 276.64013672 C-150.07469001 283.00996674 -152.65951999 290.39511579 -152.43994141 299.06201172 C-151.2275052 305.86568265 -148.99838785 312.32744616 -143.36157227 316.65917969 C-137.56157846 320.6902993 -131.66687393 324.44396919 -125.56494141 327.99951172 C-124.63149902 328.54744385 -123.69805664 329.09537598 -122.73632812 329.65991211 C-113.85277244 334.85761352 -104.91165146 339.95517618 -95.96777344 345.0480957 C-87.45767605 349.89578528 -78.98914863 354.81139492 -70.53833008 359.76171875 C-65.12426211 362.92783511 -59.6966277 366.06820229 -54.24853516 369.17529297 C-53.63491119 369.52526337 -53.02128723 369.87523376 -52.3890686 370.23580933 C-49.42531701 371.92506154 -46.45992931 373.61133479 -43.49267578 375.29443359 C-41.34902177 376.51377135 -39.21584022 377.75178214 -37.09570312 379.01156616 C-34.63541503 380.4418102 -32.16596818 381.64329114 -29.5513916 382.76419067 C-19.68323475 387.29276792 -19.68323475 387.29276792 -17.60687447 391.9175396 C-16.32210794 397.36019763 -16.71811748 402.8991674 -16.97509766 408.44091797 C-17.00311269 410.22158328 -17.02444671 412.00236508 -17.03941345 413.78318787 C-17.09640808 418.447085 -17.24343743 423.10385412 -17.40997314 427.76495361 C-17.56406834 432.5303094 -17.63206035 437.29683025 -17.70751953 442.06396484 C-17.86788526 451.39976175 -18.12349597 460.73029186 -18.43994141 470.06201172 C-41.34191897 467.02166337 -41.34191897 467.02166337 -50.43994141 464.37451172 C-51.34107666 464.11887451 -52.24221191 463.8632373 -53.1706543 463.59985352 C-89.68648572 452.93470035 -124.10342786 434.68964995 -151.43994141 408.06201172 C-152.07464355 407.44777344 -152.7093457 406.83353516 -153.36328125 406.20068359 C-161.57736372 398.22251472 -169.51784242 390.21133085 -176.43994141 381.06201172 C-176.86581543 380.50723145 -177.29168945 379.95245117 -177.73046875 379.38085938 C-200.28963759 349.9123953 -215.46026858 315.50012449 -222.43994141 279.06201172 C-222.78992188 277.25603516 -222.78992188 277.25603516 -223.14697266 275.41357422 C-225.36798025 262.98232307 -225.65402041 250.60797288 -225.68017578 238.01416016 C-225.68980081 235.22771405 -225.72086893 232.44203316 -225.75244141 229.65576172 C-225.85376914 212.61207876 -223.82172027 196.04934487 -219.68994141 179.49951172 C-219.30153076 177.93040039 -219.30153076 177.93040039 -218.90527344 176.32958984 C-209.67488842 140.07012162 -191.68131175 105.85527986 -165.87353516 78.64794922 C-163.89395491 76.54444662 -162.03191364 74.40862708 -160.18994141 72.18701172 C-123.02887483 29.64156257 -64.67979334 5.1814505 -9.31494141 0.31201172 C-6.20997098 0.15657364 -3.10761899 0.07898091 0 0 Z " fill="#ABD91D" transform="translate(244.43994140625,19.93798828125)"/>
</svg>
